<svg xmlns="http://www.w3.org/2000/svg" shape-rendering="crispEdges" viewBox="0 0 32 32" width="2048" height="2048"><path fill="#63C74D" d="M0 0h1v1H0zM1 0h1v1H1zM2 0h1v1H2zM3 0h1v1H3zM4 0h1v1H4zM5 0h1v1H5zM6 0h1v1H6zM7 0h1v1H7zM8 0h1v1H8zM9 0h1v1H9zM10 0h1v1h-1zM11 0h1v1h-1zM12 0h1v1h-1zM13 0h1v1h-1zM14 0h1v1h-1zM15 0h1v1h-1zM16 0h1v1h-1zM17 0h1v1h-1zM18 0h1v1h-1zM19 0h1v1h-1zM20 0h1v1h-1zM21 0h1v1h-1zM22 0h1v1h-1zM23 0h1v1h-1zM24 0h1v1h-1zM25 0h1v1h-1zM26 0h1v1h-1zM27 0h1v1h-1zM28 0h1v1h-1zM29 0h1v1h-1zM30 0h1v1h-1zM31 0h1v1h-1zM0 1h1v1H0zM1 1h1v1H1zM2 1h1v1H2zM3 1h1v1H3zM4 1h1v1H4zM5 1h1v1H5zM6 1h1v1H6zM7 1h1v1H7zM8 1h1v1H8zM9 1h1v1H9zM10 1h1v1h-1zM11 1h1v1h-1zM12 1h1v1h-1zM13 1h1v1h-1zM14 1h1v1h-1zM15 1h1v1h-1zM16 1h1v1h-1zM17 1h1v1h-1zM18 1h1v1h-1zM19 1h1v1h-1zM20 1h1v1h-1zM21 1h1v1h-1zM22 1h1v1h-1zM23 1h1v1h-1zM24 1h1v1h-1zM25 1h1v1h-1zM26 1h1v1h-1zM27 1h1v1h-1zM28 1h1v1h-1zM29 1h1v1h-1zM30 1h1v1h-1zM31 1h1v1h-1zM0 2h1v1H0zM1 2h1v1H1zM2 2h1v1H2zM3 2h1v1H3zM4 2h1v1H4zM5 2h1v1H5zM6 2h1v1H6zM7 2h1v1H7zM8 2h1v1H8zM9 2h1v1H9zM10 2h1v1h-1zM11 2h1v1h-1zM12 2h1v1h-1zM13 2h1v1h-1zM14 2h1v1h-1zM15 2h1v1h-1zM16 2h1v1h-1zM17 2h1v1h-1zM18 2h1v1h-1zM19 2h1v1h-1zM20 2h1v1h-1zM21 2h1v1h-1zM22 2h1v1h-1zM23 2h1v1h-1zM24 2h1v1h-1zM25 2h1v1h-1zM26 2h1v1h-1zM27 2h1v1h-1zM28 2h1v1h-1zM29 2h1v1h-1zM30 2h1v1h-1zM31 2h1v1h-1zM0 3h1v1H0zM1 3h1v1H1zM2 3h1v1H2zM3 3h1v1H3zM4 3h1v1H4zM5 3h1v1H5zM6 3h1v1H6zM7 3h1v1H7zM8 3h1v1H8zM9 3h1v1H9zM10 3h1v1h-1zM11 3h1v1h-1zM12 3h1v1h-1zM13 3h1v1h-1zM14 3h1v1h-1zM15 3h1v1h-1zM16 3h1v1h-1zM17 3h1v1h-1zM18 3h1v1h-1zM19 3h1v1h-1zM20 3h1v1h-1zM21 3h1v1h-1zM22 3h1v1h-1zM23 3h1v1h-1zM24 3h1v1h-1zM25 3h1v1h-1zM26 3h1v1h-1zM27 3h1v1h-1zM28 3h1v1h-1zM29 3h1v1h-1zM30 3h1v1h-1zM31 3h1v1h-1zM0 4h1v1H0zM1 4h1v1H1zM2 4h1v1H2zM3 4h1v1H3zM4 4h1v1H4zM5 4h1v1H5zM6 4h1v1H6zM7 4h1v1H7zM8 4h1v1H8zM9 4h1v1H9zM10 4h1v1h-1zM11 4h1v1h-1zM12 4h1v1h-1zM13 4h1v1h-1zM14 4h1v1h-1zM15 4h1v1h-1zM16 4h1v1h-1zM17 4h1v1h-1zM18 4h1v1h-1zM19 4h1v1h-1zM20 4h1v1h-1zM21 4h1v1h-1zM22 4h1v1h-1zM23 4h1v1h-1zM24 4h1v1h-1zM25 4h1v1h-1zM26 4h1v1h-1zM27 4h1v1h-1zM28 4h1v1h-1zM29 4h1v1h-1zM30 4h1v1h-1zM31 4h1v1h-1zM0 5h1v1H0zM1 5h1v1H1zM2 5h1v1H2zM3 5h1v1H3zM4 5h1v1H4zM5 5h1v1H5zM6 5h1v1H6zM7 5h1v1H7zM8 5h1v1H8zM9 5h1v1H9zM10 5h1v1h-1zM11 5h1v1h-1zM12 5h1v1h-1z"/><path fill="#8A4B44" d="M13 5h1v1h-1zM14 5h1v1h-1zM15 5h1v1h-1z"/><path fill="#905245" d="M16 5h1v1h-1zM17 5h1v1h-1zM18 5h1v1h-1z"/><path fill="#63C74D" d="M19 5h1v1h-1zM20 5h1v1h-1zM21 5h1v1h-1zM22 5h1v1h-1zM23 5h1v1h-1zM24 5h1v1h-1zM25 5h1v1h-1zM26 5h1v1h-1zM27 5h1v1h-1zM28 5h1v1h-1zM29 5h1v1h-1zM30 5h1v1h-1zM31 5h1v1h-1zM0 6h1v1H0zM1 6h1v1H1zM2 6h1v1H2zM3 6h1v1H3zM4 6h1v1H4zM5 6h1v1H5zM6 6h1v1H6zM7 6h1v1H7zM8 6h1v1H8zM9 6h1v1H9z"/><path fill="#6E313B" d="M10 6h1v1h-1z"/><path fill="#6D2F3D" d="M11 6h1v1h-1z"/><path fill="#884942" d="M12 6h1v1h-1z"/><path fill="#8A4B44" d="M13 6h1v1h-1zM14 6h1v1h-1zM15 6h1v1h-1z"/><path fill="#C77E4C" d="M16 6h1v1h-1z"/><path fill="#E6B067" d="M17 6h1v1h-1z"/><path fill="#C47F4C" d="M18 6h1v1h-1z"/><path fill="#8F4E4A" d="M19 6h1v1h-1z"/><path fill="#63C74D" d="M20 6h1v1h-1zM21 6h1v1h-1zM22 6h1v1h-1zM23 6h1v1h-1zM24 6h1v1h-1zM25 6h1v1h-1zM26 6h1v1h-1zM27 6h1v1h-1zM28 6h1v1h-1zM29 6h1v1h-1zM30 6h1v1h-1zM31 6h1v1h-1zM0 7h1v1H0zM1 7h1v1H1zM2 7h1v1H2zM3 7h1v1H3zM4 7h1v1H4zM5 7h1v1H5zM6 7h1v1H6zM7 7h1v1H7z"/><path fill="#3E192B" d="M8 7h1v1H8z"/><path fill="#682F40" d="M9 7h1v1H9z"/><path fill="#7A393F" d="M10 7h1v1h-1z"/><path fill="#894842" d="M11 7h1v1h-1z"/><path fill="#884942" d="M12 7h1v1h-1z"/><path fill="#8A4B44" d="M13 7h1v1h-1zM14 7h1v1h-1zM15 7h1v1h-1z"/><path fill="#CD834C" d="M16 7h1v1h-1zM17 7h1v1h-1z"/><path fill="#CE844D" d="M18 7h1v1h-1zM19 7h1v1h-1z"/><path fill="#C27F54" d="M20 7h1v1h-1z"/><path fill="#63C74D" d="M21 7h1v1h-1zM22 7h1v1h-1zM23 7h1v1h-1zM24 7h1v1h-1zM25 7h1v1h-1zM26 7h1v1h-1zM27 7h1v1h-1zM28 7h1v1h-1zM29 7h1v1h-1zM30 7h1v1h-1zM31 7h1v1h-1zM0 8h1v1H0zM1 8h1v1H1zM2 8h1v1H2zM3 8h1v1H3zM4 8h1v1H4zM5 8h1v1H5zM6 8h1v1H6zM7 8h1v1H7z"/><path fill="#3E192B" d="M8 8h1v1H8z"/><path fill="#682F40" d="M9 8h1v1H9z"/><path fill="#79383F" d="M10 8h1v1h-1z"/><path fill="#874841" d="M11 8h1v1h-1z"/><path fill="#874843" d="M12 8h1v1h-1z"/><path fill="#8A4B44" d="M13 8h1v1h-1z"/><path fill="#C57D4F" d="M14 8h1v1h-1z"/><path fill="#CB834B" d="M15 8h1v1h-1z"/><path fill="#CC8348" d="M16 8h1v1h-1z"/><path fill="#CE844D" d="M17 8h1v1h-1zM18 8h1v1h-1zM19 8h1v1h-1z"/><path fill="#C27F54" d="M20 8h1v1h-1z"/><path fill="#59323F" d="M21 8h1v1h-1z"/><path fill="#63C74D" d="M22 8h1v1h-1zM23 8h1v1h-1zM24 8h1v1h-1zM25 8h1v1h-1zM26 8h1v1h-1zM27 8h1v1h-1zM28 8h1v1h-1zM29 8h1v1h-1zM30 8h1v1h-1zM31 8h1v1h-1zM0 9h1v1H0zM1 9h1v1H1zM2 9h1v1H2zM3 9h1v1H3zM4 9h1v1H4zM5 9h1v1H5zM6 9h1v1H6zM7 9h1v1H7z"/><path fill="#3E192B" d="M8 9h1v1H8z"/><path fill="#682F40" d="M9 9h1v1H9z"/><path fill="#78373D" d="M10 9h1v1h-1z"/><path fill="#864740" d="M11 9h1v1h-1z"/><path fill="#874843" d="M12 9h1v1h-1z"/><path fill="#11111F" d="M13 9h1v1h-1zM14 9h1v1h-1zM15 9h1v1h-1z"/><path fill="#248866" d="M16 9h1v1h-1z"/><path fill="#11111F" d="M17 9h1v1h-1z"/><path fill="#248866" d="M18 9h1v1h-1z"/><path fill="#11111F" d="M19 9h1v1h-1zM20 9h1v1h-1z"/><path fill="#59323F" d="M21 9h1v1h-1z"/><path fill="#63C74D" d="M22 9h1v1h-1zM23 9h1v1h-1zM24 9h1v1h-1zM25 9h1v1h-1zM26 9h1v1h-1zM27 9h1v1h-1zM28 9h1v1h-1zM29 9h1v1h-1zM30 9h1v1h-1zM31 9h1v1h-1zM0 10h1v1H0zM1 10h1v1H1zM2 10h1v1H2zM3 10h1v1H3zM4 10h1v1H4zM5 10h1v1H5zM6 10h1v1H6zM7 10h1v1H7z"/><path fill="#3E192B" d="M8 10h1v1H8z"/><path fill="#682F40" d="M9 10h1v1H9z"/><path fill="#79383F" d="M10 10h1v1h-1z"/><path fill="#864740" d="M11 10h1v1h-1zM12 10h1v1h-1z"/><path fill="#11111F" d="M13 10h1v1h-1zM14 10h1v1h-1zM15 10h1v1h-1zM16 10h1v1h-1z"/><path fill="#248866" d="M17 10h1v1h-1z"/><path fill="#11111F" d="M18 10h1v1h-1zM19 10h1v1h-1zM20 10h1v1h-1z"/><path fill="#59323F" d="M21 10h1v1h-1z"/><path fill="#63C74D" d="M22 10h1v1h-1zM23 10h1v1h-1zM24 10h1v1h-1zM25 10h1v1h-1zM26 10h1v1h-1zM27 10h1v1h-1zM28 10h1v1h-1zM29 10h1v1h-1zM30 10h1v1h-1zM31 10h1v1h-1zM0 11h1v1H0zM1 11h1v1H1zM2 11h1v1H2zM3 11h1v1H3zM4 11h1v1H4zM5 11h1v1H5zM6 11h1v1H6zM7 11h1v1H7z"/><path fill="#3E192B" d="M8 11h1v1H8z"/><path fill="#682F40" d="M9 11h1v1H9z"/><path fill="#79383F" d="M10 11h1v1h-1z"/><path fill="#864740" d="M11 11h1v1h-1zM12 11h1v1h-1z"/><path fill="#C78861" d="M13 11h1v1h-1z"/><path fill="#E3B36B" d="M14 11h1v1h-1z"/><path fill="#EBBA70" d="M15 11h1v1h-1z"/><path fill="#E8B573" d="M16 11h1v1h-1z"/><path fill="#EAB873" d="M17 11h1v1h-1z"/><path fill="#E9B674" d="M18 11h1v1h-1z"/><path fill="#EAB976" d="M19 11h1v1h-1z"/><path fill="#EAB871" d="M20 11h1v1h-1zM21 11h1v1h-1z"/><path fill="#EABC76" d="M22 11h1v1h-1z"/><path fill="#E5B972" d="M23 11h1v1h-1z"/><path fill="#EABA72" d="M24 11h1v1h-1z"/><path fill="#E7AB6F" d="M25 11h1v1h-1z"/><path fill="#C27A48" d="M26 11h1v1h-1z"/><path fill="#C8784B" d="M27 11h1v1h-1z"/><path fill="#63C74D" d="M28 11h1v1h-1zM29 11h1v1h-1zM30 11h1v1h-1zM31 11h1v1h-1zM0 12h1v1H0zM1 12h1v1H1zM2 12h1v1H2zM3 12h1v1H3zM4 12h1v1H4z"/><path fill="#763740" d="M5 12h1v1H5zM6 12h1v1H6zM7 12h1v1H7zM8 12h1v1H8z"/><path fill="#C27A48" d="M9 12h1v1H9z"/><path fill="#C27950" d="M10 12h1v1h-1z"/><path fill="#C27A48" d="M11 12h1v1h-1z"/><path fill="#C07B48" d="M12 12h1v1h-1z"/><path fill="#C57C49" d="M13 12h1v1h-1z"/><path fill="#C58057" d="M14 12h1v1h-1z"/><path fill="#C47F56" d="M15 12h1v1h-1z"/><path fill="#C57C54" d="M16 12h1v1h-1zM17 12h1v1h-1z"/><path fill="#C17C53" d="M18 12h1v1h-1z"/><path fill="#C47F56" d="M19 12h1v1h-1z"/><path fill="#C37D51" d="M20 12h1v1h-1z"/><path fill="#C37E4D" d="M21 12h1v1h-1z"/><path fill="#C17E4A" d="M22 12h1v1h-1z"/><path fill="#C77D52" d="M23 12h1v1h-1z"/><path fill="#C57B46" d="M24 12h1v1h-1z"/><path fill="#C77C4A" d="M25 12h1v1h-1z"/><path fill="#C57B46" d="M26 12h1v1h-1z"/><path fill="#C67945" d="M27 12h1v1h-1z"/><path fill="#C77D4E" d="M28 12h1v1h-1z"/><path fill="#C47A4F" d="M29 12h1v1h-1z"/><path fill="#63C74D" d="M30 12h1v1h-1zM31 12h1v1h-1zM0 13h1v1H0zM1 13h1v1H1zM2 13h1v1H2z"/><path fill="#C57B46" d="M3 13h1v1H3zM4 13h1v1H4z"/><path fill="#763740" d="M5 13h1v1H5zM6 13h1v1H6zM7 13h1v1H7zM8 13h1v1H8zM9 13h1v1H9zM10 13h1v1h-1z"/><path fill="#A22633" d="M11 13h1v1h-1zM12 13h1v1h-1zM13 13h1v1h-1zM14 13h1v1h-1zM15 13h1v1h-1zM16 13h1v1h-1z"/><path fill="#E8FFE5" d="M17 13h1v1h-1z"/><path fill="#A22633" d="M18 13h1v1h-1zM19 13h1v1h-1zM20 13h1v1h-1zM21 13h1v1h-1zM22 13h1v1h-1zM23 13h1v1h-1z"/><path fill="#11111F" d="M24 13h1v1h-1z"/><path fill="#13111D" d="M25 13h1v1h-1z"/><path fill="#11121C" d="M26 13h1v1h-1z"/><path fill="#10111B" d="M27 13h1v1h-1z"/><path fill="#763740" d="M28 13h1v1h-1zM29 13h1v1h-1zM30 13h1v1h-1z"/><path fill="#63C74D" d="M31 13h1v1h-1zM0 14h1v1H0z"/><path fill="#C57B46" d="M1 14h1v1H1zM2 14h1v1H2zM3 14h1v1H3z"/><path fill="#11111F" d="M4 14h1v1H4zM5 14h1v1H5zM6 14h1v1H6z"/><path fill="#586A84" d="M7 14h1v1H7z"/><path fill="#87A0BD" d="M8 14h1v1H8z"/><path fill="#869FBC" d="M9 14h1v1H9z"/><path fill="#BFD9CC" d="M10 14h1v1h-1z"/><path fill="#A22633" d="M11 14h1v1h-1z"/><path fill="#121220" d="M12 14h1v1h-1zM13 14h1v1h-1zM14 14h1v1h-1zM15 14h1v1h-1z"/><path fill="#F04" d="M16 14h1v1h-1z"/><path fill="#E8FFE5" d="M17 14h1v1h-1z"/><path fill="#F04" d="M18 14h1v1h-1z"/><path fill="#121220" d="M19 14h1v1h-1zM20 14h1v1h-1zM21 14h1v1h-1zM22 14h1v1h-1z"/><path fill="#A22633" d="M23 14h1v1h-1z"/><path fill="#11111F" d="M24 14h1v1h-1zM25 14h1v1h-1zM26 14h1v1h-1z"/><path fill="#763740" d="M27 14h1v1h-1z"/><path fill="#63C74D" d="M28 14h1v1h-1zM29 14h1v1h-1zM30 14h1v1h-1zM31 14h1v1h-1zM0 15h1v1H0z"/><path fill="#763740" d="M1 15h1v1H1z"/><path fill="#11111F" d="M2 15h1v1H2zM3 15h1v1H3zM4 15h1v1H4zM5 15h1v1H5zM6 15h1v1H6z"/><path fill="#A22633" d="M7 15h1v1H7zM8 15h1v1H8zM9 15h1v1H9zM10 15h1v1h-1zM11 15h1v1h-1z"/><path fill="#121220" d="M12 15h1v1h-1z"/><path fill="#11111F" d="M13 15h1v1h-1zM14 15h1v1h-1zM15 15h1v1h-1z"/><path fill="#A22633" d="M16 15h1v1h-1z"/><path fill="#F04" d="M17 15h1v1h-1z"/><path fill="#A22633" d="M18 15h1v1h-1z"/><path fill="#121220" d="M19 15h1v1h-1z"/><path fill="#11111F" d="M20 15h1v1h-1z"/><path fill="#13111F" d="M21 15h1v1h-1z"/><path fill="#121220" d="M22 15h1v1h-1z"/><path fill="#A22633" d="M23 15h1v1h-1z"/><path fill="#11111F" d="M24 15h1v1h-1zM25 15h1v1h-1zM26 15h1v1h-1z"/><path fill="#63C74D" d="M27 15h1v1h-1zM28 15h1v1h-1zM29 15h1v1h-1zM30 15h1v1h-1zM31 15h1v1h-1z"/><path fill="#763740" d="M0 16h1v1H0zM1 16h1v1H1z"/><path fill="#11111F" d="M2 16h1v1H2zM3 16h1v1H3zM4 16h1v1H4zM5 16h1v1H5zM6 16h1v1H6z"/><path fill="#A22633" d="M7 16h1v1H7z"/><path fill="#EBFDF0" d="M8 16h1v1H8z"/><path fill="#EBFFE6" d="M9 16h1v1H9z"/><path fill="#E8FFE5" d="M10 16h1v1h-1z"/><path fill="#A22633" d="M11 16h1v1h-1z"/><path fill="#11111F" d="M12 16h1v1h-1z"/><path fill="#EFFDF4" d="M13 16h1v1h-1zM14 16h1v1h-1z"/><path fill="#121220" d="M15 16h1v1h-1z"/><path fill="#A22633" d="M16 16h1v1h-1z"/><path fill="#E8FFE5" d="M17 16h1v1h-1z"/><path fill="#A22633" d="M18 16h1v1h-1z"/><path fill="#121220" d="M19 16h1v1h-1z"/><path fill="#EFFDF4" d="M20 16h1v1h-1zM21 16h1v1h-1z"/><path fill="#121220" d="M22 16h1v1h-1z"/><path fill="#A22633" d="M23 16h1v1h-1z"/><path fill="#63C74D" d="M24 16h1v1h-1zM25 16h1v1h-1zM26 16h1v1h-1zM27 16h1v1h-1zM28 16h1v1h-1zM29 16h1v1h-1zM30 16h1v1h-1zM31 16h1v1h-1zM0 17h1v1H0zM1 17h1v1H1zM2 17h1v1H2zM3 17h1v1H3zM4 17h1v1H4zM5 17h1v1H5zM6 17h1v1H6z"/><path fill="#A22633" d="M7 17h1v1H7z"/><path fill="#EBFFE6" d="M8 17h1v1H8z"/><path fill="#E8FFE5" d="M9 17h1v1H9z"/><path fill="#E7FFE7" d="M10 17h1v1h-1z"/><path fill="#A22633" d="M11 17h1v1h-1z"/><path fill="#121220" d="M12 17h1v1h-1z"/><path fill="#EFFDF4" d="M13 17h1v1h-1zM14 17h1v1h-1z"/><path fill="#11111F" d="M15 17h1v1h-1z"/><path fill="#A22633" d="M16 17h1v1h-1z"/><path fill="#C05C3A" d="M17 17h1v1h-1z"/><path fill="#A22633" d="M18 17h1v1h-1z"/><path fill="#121220" d="M19 17h1v1h-1z"/><path fill="#EFFDF4" d="M20 17h1v1h-1zM21 17h1v1h-1z"/><path fill="#121220" d="M22 17h1v1h-1z"/><path fill="#A22633" d="M23 17h1v1h-1z"/><path fill="#63C74D" d="M24 17h1v1h-1zM25 17h1v1h-1zM26 17h1v1h-1zM27 17h1v1h-1zM28 17h1v1h-1zM29 17h1v1h-1zM30 17h1v1h-1zM31 17h1v1h-1zM0 18h1v1H0zM1 18h1v1H1zM2 18h1v1H2zM3 18h1v1H3zM4 18h1v1H4zM5 18h1v1H5zM6 18h1v1H6z"/><path fill="#8CA1BE" d="M7 18h1v1H7z"/><path fill="#EDFFF1" d="M8 18h1v1H8z"/><path fill="#E8FFE5" d="M9 18h1v1H9z"/><path fill="#ECF9DE" d="M10 18h1v1h-1z"/><path fill="#A22633" d="M11 18h1v1h-1zM12 18h1v1h-1zM13 18h1v1h-1zM14 18h1v1h-1zM15 18h1v1h-1zM16 18h1v1h-1z"/><path fill="#FEB63D" d="M17 18h1v1h-1z"/><path fill="#A22633" d="M18 18h1v1h-1zM19 18h1v1h-1zM20 18h1v1h-1zM21 18h1v1h-1zM22 18h1v1h-1zM23 18h1v1h-1z"/><path fill="#C85E36" d="M24 18h1v1h-1z"/><path fill="#CE5A37" d="M25 18h1v1h-1zM26 18h1v1h-1z"/><path fill="#63C74D" d="M27 18h1v1h-1zM28 18h1v1h-1zM29 18h1v1h-1zM30 18h1v1h-1zM31 18h1v1h-1zM0 19h1v1H0zM1 19h1v1H1zM2 19h1v1H2zM3 19h1v1H3zM4 19h1v1H4zM5 19h1v1H5zM6 19h1v1H6z"/><path fill="#8CA1BE" d="M7 19h1v1H7z"/><path fill="#E9FDF2" d="M8 19h1v1H8z"/><path fill="#EAFEE5" d="M9 19h1v1H9z"/><path fill="#EFFEE1" d="M10 19h1v1h-1z"/><path fill="#BF5C35" d="M11 19h1v1h-1z"/><path fill="#FEB738" d="M12 19h1v1h-1z"/><path fill="#FABD36" d="M13 19h1v1h-1z"/><path fill="#FDB638" d="M14 19h1v1h-1z"/><path fill="#FDB637" d="M15 19h1v1h-1z"/><path fill="#FEB738" d="M16 19h1v1h-1z"/><path fill="#FDB638" d="M17 19h1v1h-1z"/><path fill="#FEB738" d="M18 19h1v1h-1z"/><path fill="#FDB735" d="M19 19h1v1h-1z"/><path fill="#FDB63A" d="M20 19h1v1h-1z"/><path fill="#FCB737" d="M21 19h1v1h-1zM22 19h1v1h-1zM23 19h1v1h-1zM24 19h1v1h-1z"/><path fill="#FEB63D" d="M25 19h1v1h-1z"/><path fill="#FCB737" d="M26 19h1v1h-1z"/><path fill="#D1623D" d="M27 19h1v1h-1z"/><path fill="#63C74D" d="M28 19h1v1h-1zM29 19h1v1h-1zM30 19h1v1h-1zM31 19h1v1h-1zM0 20h1v1H0zM1 20h1v1H1zM2 20h1v1H2zM3 20h1v1H3zM4 20h1v1H4zM5 20h1v1H5zM6 20h1v1H6z"/><path fill="#8CA1BE" d="M7 20h1v1H7zM8 20h1v1H8z"/><path fill="#E9FBEE" d="M9 20h1v1H9z"/><path fill="#F3FCE7" d="M10 20h1v1h-1z"/><path fill="#BF5C35" d="M11 20h1v1h-1zM12 20h1v1h-1zM13 20h1v1h-1zM14 20h1v1h-1z"/><path fill="#FBB438" d="M15 20h1v1h-1z"/><path fill="#FEB738" d="M16 20h1v1h-1z"/><path fill="#FCB737" d="M17 20h1v1h-1z"/><path fill="#FDB934" d="M18 20h1v1h-1z"/><path fill="#FCB737" d="M19 20h1v1h-1zM20 20h1v1h-1zM21 20h1v1h-1z"/><path fill="#D1623D" d="M22 20h1v1h-1zM23 20h1v1h-1zM24 20h1v1h-1zM25 20h1v1h-1zM26 20h1v1h-1zM27 20h1v1h-1zM28 20h1v1h-1z"/><path fill="#63C74D" d="M29 20h1v1h-1zM30 20h1v1h-1zM31 20h1v1h-1zM0 21h1v1H0zM1 21h1v1H1zM2 21h1v1H2zM3 21h1v1H3zM4 21h1v1H4zM5 21h1v1H5zM6 21h1v1H6zM7 21h1v1H7z"/><path fill="#8CA1BE" d="M8 21h1v1H8zM9 21h1v1H9zM10 21h1v1h-1zM11 21h1v1h-1zM12 21h1v1h-1z"/><path fill="#BD5939" d="M13 21h1v1h-1zM14 21h1v1h-1zM15 21h1v1h-1zM16 21h1v1h-1z"/><path fill="#BF5C35" d="M17 21h1v1h-1z"/><path fill="#C05C3A" d="M18 21h1v1h-1zM19 21h1v1h-1zM20 21h1v1h-1zM21 21h1v1h-1z"/><path fill="#953D41" d="M22 21h1v1h-1zM23 21h1v1h-1zM24 21h1v1h-1zM25 21h1v1h-1zM26 21h1v1h-1zM27 21h1v1h-1z"/><path fill="#63C74D" d="M28 21h1v1h-1zM29 21h1v1h-1zM30 21h1v1h-1zM31 21h1v1h-1zM0 22h1v1H0zM1 22h1v1H1zM2 22h1v1H2zM3 22h1v1H3zM4 22h1v1H4zM5 22h1v1H5zM6 22h1v1H6zM7 22h1v1H7zM8 22h1v1H8zM9 22h1v1H9z"/><path fill="#8CA1BE" d="M10 22h1v1h-1zM11 22h1v1h-1zM12 22h1v1h-1zM13 22h1v1h-1zM14 22h1v1h-1z"/><path fill="#602C37" d="M15 22h1v1h-1zM16 22h1v1h-1zM17 22h1v1h-1zM18 22h1v1h-1zM19 22h1v1h-1zM20 22h1v1h-1zM21 22h1v1h-1zM22 22h1v1h-1z"/><path fill="#63C74D" d="M23 22h1v1h-1zM24 22h1v1h-1zM25 22h1v1h-1zM26 22h1v1h-1zM27 22h1v1h-1zM28 22h1v1h-1zM29 22h1v1h-1zM30 22h1v1h-1zM31 22h1v1h-1zM0 23h1v1H0zM1 23h1v1H1zM2 23h1v1H2zM3 23h1v1H3zM4 23h1v1H4zM5 23h1v1H5zM6 23h1v1H6zM7 23h1v1H7zM8 23h1v1H8zM9 23h1v1H9zM10 23h1v1h-1z"/><path fill="#432245" d="M11 23h1v1h-1zM12 23h1v1h-1z"/><path fill="#8C9CC3" d="M13 23h1v1h-1z"/><path fill="#85A1C5" d="M14 23h1v1h-1z"/><path fill="#86A1C5" d="M15 23h1v1h-1z"/><path fill="#859EBF" d="M16 23h1v1h-1z"/><path fill="#819CBF" d="M17 23h1v1h-1z"/><path fill="#432245" d="M18 23h1v1h-1z"/><path fill="#63C74D" d="M19 23h1v1h-1zM20 23h1v1h-1zM21 23h1v1h-1zM22 23h1v1h-1zM23 23h1v1h-1zM24 23h1v1h-1zM25 23h1v1h-1zM26 23h1v1h-1zM27 23h1v1h-1zM28 23h1v1h-1zM29 23h1v1h-1zM30 23h1v1h-1zM31 23h1v1h-1zM0 24h1v1H0zM1 24h1v1H1zM2 24h1v1H2zM3 24h1v1H3zM4 24h1v1H4zM5 24h1v1H5zM6 24h1v1H6zM7 24h1v1H7z"/><path fill="#551E36" d="M8 24h1v1H8zM9 24h1v1H9zM10 24h1v1h-1z"/><path fill="#813F43" d="M11 24h1v1h-1z"/><path fill="#A05B4A" d="M12 24h1v1h-1z"/><path fill="#F7FFEE" d="M13 24h1v1h-1z"/><path fill="#EBFFE6" d="M14 24h1v1h-1z"/><path fill="#297D6E" d="M15 24h1v1h-1zM16 24h1v1h-1zM17 24h1v1h-1zM18 24h1v1h-1z"/><path fill="#5B233E" d="M19 24h1v1h-1z"/><path fill="#481D33" d="M20 24h1v1h-1z"/><path fill="#63C74D" d="M21 24h1v1h-1zM22 24h1v1h-1zM23 24h1v1h-1zM24 24h1v1h-1zM25 24h1v1h-1zM26 24h1v1h-1zM27 24h1v1h-1zM28 24h1v1h-1zM29 24h1v1h-1zM30 24h1v1h-1zM31 24h1v1h-1zM0 25h1v1H0zM1 25h1v1H1zM2 25h1v1H2zM3 25h1v1H3zM4 25h1v1H4zM5 25h1v1H5zM6 25h1v1H6zM7 25h1v1H7z"/><path fill="#551E36" d="M8 25h1v1H8z"/><path fill="#C47B49" d="M9 25h1v1H9z"/><path fill="#C37A51" d="M10 25h1v1h-1z"/><path fill="#532132" d="M11 25h1v1h-1z"/><path fill="#BF794D" d="M12 25h1v1h-1z"/><path fill="#C37F46" d="M13 25h1v1h-1z"/><path fill="#EBFFF1" d="M14 25h1v1h-1z"/><path fill="#E3FFE2" d="M15 25h1v1h-1z"/><path fill="#19485A" d="M16 25h1v1h-1z"/><path fill="#297D6E" d="M17 25h1v1h-1z"/><path fill="#E3FFE2" d="M18 25h1v1h-1z"/><path fill="#C37A51" d="M19 25h1v1h-1z"/><path fill="#4F1E3A" d="M20 25h1v1h-1z"/><path fill="#63C74D" d="M21 25h1v1h-1zM22 25h1v1h-1zM23 25h1v1h-1zM24 25h1v1h-1zM25 25h1v1h-1zM26 25h1v1h-1zM27 25h1v1h-1zM28 25h1v1h-1zM29 25h1v1h-1zM30 25h1v1h-1zM31 25h1v1h-1zM0 26h1v1H0zM1 26h1v1H1zM2 26h1v1H2zM3 26h1v1H3zM4 26h1v1H4zM5 26h1v1H5zM6 26h1v1H6z"/><path fill="#551E36" d="M7 26h1v1H7z"/><path fill="#C37A51" d="M8 26h1v1H8zM9 26h1v1H9zM10 26h1v1h-1z"/><path fill="#541F2A" d="M11 26h1v1h-1z"/><path fill="#B07066" d="M12 26h1v1h-1z"/><path fill="#60251F" d="M13 26h1v1h-1z"/><path fill="#E3FFE2" d="M14 26h1v1h-1zM15 26h1v1h-1z"/><path fill="#19485A" d="M16 26h1v1h-1z"/><path fill="#1C5066" d="M17 26h1v1h-1z"/><path fill="#E3FFE2" d="M18 26h1v1h-1z"/><path fill="#C37A51" d="M19 26h1v1h-1zM20 26h1v1h-1z"/><path fill="#551E36" d="M21 26h1v1h-1z"/><path fill="#63C74D" d="M22 26h1v1h-1zM23 26h1v1h-1zM24 26h1v1h-1zM25 26h1v1h-1zM26 26h1v1h-1zM27 26h1v1h-1zM28 26h1v1h-1zM29 26h1v1h-1zM30 26h1v1h-1zM31 26h1v1h-1zM0 27h1v1H0zM1 27h1v1H1zM2 27h1v1H2zM3 27h1v1H3zM4 27h1v1H4zM5 27h1v1H5z"/><path fill="#551E36" d="M6 27h1v1H6z"/><path fill="#C37A51" d="M7 27h1v1H7zM8 27h1v1H8zM9 27h1v1H9zM10 27h1v1h-1z"/><path fill="#8A4A41" d="M11 27h1v1h-1z"/><path fill="#531F21" d="M12 27h1v1h-1z"/><path fill="#C7824E" d="M13 27h1v1h-1z"/><path fill="#EBFFE4" d="M14 27h1v1h-1z"/><path fill="#E7FFE5" d="M15 27h1v1h-1z"/><path fill="#19485A" d="M16 27h1v1h-1z"/><path fill="#18595E" d="M17 27h1v1h-1z"/><path fill="#E3FFE2" d="M18 27h1v1h-1z"/><path fill="#C37A51" d="M19 27h1v1h-1zM20 27h1v1h-1z"/><path fill="#551E36" d="M21 27h1v1h-1z"/><path fill="#63C74D" d="M22 27h1v1h-1zM23 27h1v1h-1zM24 27h1v1h-1zM25 27h1v1h-1zM26 27h1v1h-1zM27 27h1v1h-1zM28 27h1v1h-1zM29 27h1v1h-1zM30 27h1v1h-1zM31 27h1v1h-1zM0 28h1v1H0zM1 28h1v1H1zM2 28h1v1H2zM3 28h1v1H3zM4 28h1v1H4z"/><path fill="#551E36" d="M5 28h1v1H5z"/><path fill="#C37A51" d="M6 28h1v1H6zM7 28h1v1H7zM8 28h1v1H8zM9 28h1v1H9z"/><path fill="#451E33" d="M10 28h1v1h-1z"/><path fill="#8A4A41" d="M11 28h1v1h-1z"/><path fill="#551D38" d="M12 28h1v1h-1z"/><path fill="#B97351" d="M13 28h1v1h-1z"/><path fill="#C07C4D" d="M14 28h1v1h-1z"/><path fill="#EBFCE2" d="M15 28h1v1h-1z"/><path fill="#19485A" d="M16 28h1v1h-1z"/><path fill="#0E525D" d="M17 28h1v1h-1z"/><path fill="#E3FFE2" d="M18 28h1v1h-1z"/><path fill="#C37A51" d="M19 28h1v1h-1zM20 28h1v1h-1z"/><path fill="#5F3036" d="M21 28h1v1h-1z"/><path fill="#551E36" d="M22 28h1v1h-1z"/><path fill="#63C74D" d="M23 28h1v1h-1zM24 28h1v1h-1zM25 28h1v1h-1zM26 28h1v1h-1zM27 28h1v1h-1zM28 28h1v1h-1zM29 28h1v1h-1zM30 28h1v1h-1zM31 28h1v1h-1zM0 29h1v1H0zM1 29h1v1H1zM2 29h1v1H2zM3 29h1v1H3zM4 29h1v1H4z"/><path fill="#551E36" d="M5 29h1v1H5z"/><path fill="#C37A51" d="M6 29h1v1H6zM7 29h1v1H7zM8 29h1v1H8z"/><path fill="#501E37" d="M9 29h1v1H9z"/><path fill="#4A1F33" d="M10 29h1v1h-1z"/><path fill="#8A4A41" d="M11 29h1v1h-1z"/><path fill="#814845" d="M12 29h1v1h-1z"/><path fill="#C4855E" d="M13 29h1v1h-1z"/><path fill="#C17C48" d="M14 29h1v1h-1z"/><path fill="#F0FBEB" d="M15 29h1v1h-1z"/><path fill="#19485A" d="M16 29h1v1h-1z"/><path fill="#115763" d="M17 29h1v1h-1z"/><path fill="#E3FFE2" d="M18 29h1v1h-1z"/><path fill="#C37A51" d="M19 29h1v1h-1zM20 29h1v1h-1z"/><path fill="#56232A" d="M21 29h1v1h-1z"/><path fill="#8A4A41" d="M22 29h1v1h-1z"/><path fill="#551E36" d="M23 29h1v1h-1z"/><path fill="#63C74D" d="M24 29h1v1h-1zM25 29h1v1h-1zM26 29h1v1h-1zM27 29h1v1h-1zM28 29h1v1h-1zM29 29h1v1h-1zM30 29h1v1h-1zM31 29h1v1h-1zM0 30h1v1H0zM1 30h1v1H1zM2 30h1v1H2zM3 30h1v1H3zM4 30h1v1H4z"/><path fill="#551E36" d="M5 30h1v1H5z"/><path fill="#C37A51" d="M6 30h1v1H6zM7 30h1v1H7zM8 30h1v1H8z"/><path fill="#4B1F31" d="M9 30h1v1H9z"/><path fill="#491E32" d="M10 30h1v1h-1z"/><path fill="#8A4A41" d="M11 30h1v1h-1z"/><path fill="#BF7759" d="M12 30h1v1h-1z"/><path fill="#4F2241" d="M13 30h1v1h-1z"/><path fill="#B27A63" d="M14 30h1v1h-1z"/><path fill="#F0FBEB" d="M15 30h1v1h-1z"/><path fill="#144862" d="M16 30h1v1h-1z"/><path fill="#185E66" d="M17 30h1v1h-1z"/><path fill="#E3FFE2" d="M18 30h1v1h-1z"/><path fill="#C37A51" d="M19 30h1v1h-1zM20 30h1v1h-1z"/><path fill="#7C4549" d="M21 30h1v1h-1z"/><path fill="#8A4A41" d="M22 30h1v1h-1z"/><path fill="#551E36" d="M23 30h1v1h-1z"/><path fill="#63C74D" d="M24 30h1v1h-1zM25 30h1v1h-1zM26 30h1v1h-1zM27 30h1v1h-1zM28 30h1v1h-1zM29 30h1v1h-1zM30 30h1v1h-1zM31 30h1v1h-1zM0 31h1v1H0zM1 31h1v1H1zM2 31h1v1H2zM3 31h1v1H3zM4 31h1v1H4z"/><path fill="#551E36" d="M5 31h1v1H5z"/><path fill="#C37A51" d="M6 31h1v1H6z"/><path fill="#C57E4A" d="M7 31h1v1H7z"/><path fill="#C37A51" d="M8 31h1v1H8zM9 31h1v1H9z"/><path fill="#4F1E34" d="M10 31h1v1h-1z"/><path fill="#8A4A41" d="M11 31h1v1h-1z"/><path fill="#C37C48" d="M12 31h1v1h-1z"/><path fill="#8B4943" d="M13 31h1v1h-1z"/><path fill="#7D3B45" d="M14 31h1v1h-1z"/><path fill="#E3FFE2" d="M15 31h1v1h-1z"/><path fill="#12465E" d="M16 31h1v1h-1z"/><path fill="#145866" d="M17 31h1v1h-1z"/><path fill="#E3FFE2" d="M18 31h1v1h-1z"/><path fill="#C37A51" d="M19 31h1v1h-1zM20 31h1v1h-1z"/><path fill="#481F35" d="M21 31h1v1h-1z"/><path fill="#8A4A41" d="M22 31h1v1h-1z"/><path fill="#551E36" d="M23 31h1v1h-1z"/><path fill="#63C74D" d="M24 31h1v1h-1zM25 31h1v1h-1zM26 31h1v1h-1zM27 31h1v1h-1zM28 31h1v1h-1zM29 31h1v1h-1zM30 31h1v1h-1zM31 31h1v1h-1z"/></svg>