<svg fill="none" height="60" shape-rendering="crispEdges" viewBox="0 0 160 60" width="160" xmlns="http://www.w3.org/2000/svg"><g fill="#d53c5e"><path d="m90 0h-60v10h60z"/><path d="m160 0h-60v10h60z"/><path d="m40 10h-10v10h10z"/></g><path d="m60 10h-20v10h20z" fill="#fff"/><path d="m80 10h-20v10h20z" fill="#000"/><path d="m90 10h-10v10h10z" fill="#d53c5e"/><path d="m110 10h-10v10h10z" fill="#d53c5e"/><path d="m130 10h-20v10h20z" fill="#fff"/><path d="m150 10h-20v10h20z" fill="#000"/><path d="m160 10h-10v10h10z" fill="#d53c5e"/><path d="m40 20h-40v10h40z" fill="#d53c5e"/><path d="m60 20h-20v10h20z" fill="#fff"/><path d="m80 20h-20v10h20z" fill="#000"/><path d="m110 20h-30v10h30z" fill="#d53c5e"/><path d="m130 20h-20v10h20z" fill="#fff"/><path d="m150 20h-20v10h20z" fill="#000"/><path d="m160 20h-10v10h10z" fill="#d53c5e"/><path d="m10 30h-10v10h10z" fill="#d53c5e"/><path d="m40 30h-10v10h10z" fill="#d53c5e"/><path d="m60 30h-20v10h20z" fill="#fff"/><path d="m80 30h-20v10h20z" fill="#000"/><path d="m90 30h-10v10h10z" fill="#d53c5e"/><path d="m110 30h-10v10h10z" fill="#d53c5e"/><path d="m130 30h-20v10h20z" fill="#fff"/><path d="m150 30h-20v10h20z" fill="#000"/><path d="m160 30h-10v10h10z" fill="#d53c5e"/><path d="m10 40h-10v10h10z" fill="#d53c5e"/><path d="m40 40h-10v10h10z" fill="#d53c5e"/><path d="m60 40h-20v10h20z" fill="#fff"/><path d="m80 40h-20v10h20z" fill="#000"/><path d="m90 40h-10v10h10z" fill="#d53c5e"/><path d="m110 40h-10v10h10z" fill="#d53c5e"/><path d="m130 40h-20v10h20z" fill="#fff"/><path d="m150 40h-20v10h20z" fill="#000"/><path d="m160 40h-10v10h10z" fill="#d53c5e"/><path d="m90 50h-60v10h60z" fill="#d53c5e"/><path d="m160 50h-60v10h60z" fill="#d53c5e"/></svg>